<svg width="56" height="47" viewBox="0 0 56 47" fill="none" xmlns="http://www.w3.org/2000/svg">
<path id="Vector" d="M18.6667 13.7083C18.6667 15.3403 18.1222 16.7274 17.0333 17.8698C15.9444 19.0122 14.6222 19.5833 13.0667 19.5833C11.5111 19.5833 10.1889 19.0122 9.1 17.8698C8.01111 16.7274 7.46667 15.3403 7.46667 13.7083C7.46667 12.0764 8.01111 10.6892 9.1 9.54688C10.1889 8.40451 11.5111 7.83333 13.0667 7.83333C14.6222 7.83333 15.9444 8.40451 17.0333 9.54688C18.1222 10.6892 18.6667 12.0764 18.6667 13.7083ZM48.5333 25.4583V39.1667H7.46667V33.2917L16.8 23.5L21.4667 28.3958L36.4 12.7292L48.5333 25.4583ZM51.3333 3.91667H4.66667C4.41389 3.91667 4.19514 4.01356 4.01042 4.20736C3.82569 4.40115 3.73333 4.63064 3.73333 4.89583V42.1042C3.73333 42.3694 3.82569 42.5989 4.01042 42.7926C4.19514 42.9864 4.41389 43.0833 4.66667 43.0833H51.3333C51.5861 43.0833 51.8049 42.9864 51.9896 42.7926C52.1743 42.5989 52.2667 42.3694 52.2667 42.1042V4.89583C52.2667 4.63064 52.1743 4.40115 51.9896 4.20736C51.8049 4.01356 51.5861 3.91667 51.3333 3.91667ZM56 4.89583V42.1042C56 43.4505 55.5431 44.6031 54.6292 45.5619C53.7153 46.5206 52.6167 47 51.3333 47H4.66667C3.38333 47 2.28472 46.5206 1.37083 45.5619C0.456944 44.6031 0 43.4505 0 42.1042V4.89583C0 3.54948 0.456944 2.39692 1.37083 1.43815C2.28472 0.479384 3.38333 0 4.66667 0H51.3333C52.6167 0 53.7153 0.479384 54.6292 1.43815C55.5431 2.39692 56 3.54948 56 4.89583Z" fill="#31140E"/>
</svg>
